# xmcd
#
# Track frame offsets:
#	150
#	11650
#	27083
#	41955
#	52481
#	59401
#	75312
#	82414
#	95083
#	110390
#	126644
#	147424
#	171618
#	184880
#	195088
#	209701
#	224572
#
# Disc length: 3385 seconds
#
# Revision: 0
# Processed by: cddbd v1.5.2PL0 Copyright (c) Steve Scherf et al.
# Submitted via: EasyCDDAExtractor 9.0.0.1
#
DISCID=130d3711
DTITLE=Willie Nelson - Live From Austin Tx
DYEAR=2006
DGENRE=Country
TTITLE0=Whiskey River
TTITLE1=Stay A Little Longer
TTITLE2=Good-Hearted Woman
TTITLE3=Funny
TTITLE4=Crazy
TTITLE5=Night Life
TTITLE6=If You've Got The Money I've Got The Time
TTITLE7=Nothing I Can Do About It Now
TTITLE8=Help Me Make It Through The Night
TTITLE9=Me And Bobby Mcgee
TTITLE10=Loving Her Was Easier
TTITLE11=Bloody Mary Morning
TTITLE12=Blue Eyes Crying In The Rain
TTITLE13=On The Road Again
TTITLE14=Always On My Mind
TTITLE15=Still Is Still Moving To Me
TTITLE16=milk cow blues
EXTD=
EXTT0=
EXTT1=
EXTT2=
EXTT3=
EXTT4=
EXTT5=
EXTT6=
EXTT7=
EXTT8=
EXTT9=
EXTT10=
EXTT11=
EXTT12=
EXTT13=
EXTT14=
EXTT15=
EXTT16=
PLAYORDER=
